<?xml version="1.0" encoding="UTF-8" standalone="no"?>
<!DOCTYPE svg PUBLIC "-//W3C//DTD SVG 1.1//EN" "http://www.w3.org/Graphics/SVG/1.1/DTD/svg11.dtd">
<svg xmlns="http://www.w3.org/2000/svg" version="1.1" viewBox="0.00 0.00 319.00 477.00">
<g stroke-width="2.00" fill="none" stroke-linecap="butt">
<path stroke="#66d877" vector-effect="non-scaling-stroke" d="
  M 220.05 74.02
  Q 219.01 74.52 219.82 76.49
  Q 220.22 77.48 219.16 77.78
  Q 218.77 77.89 218.62 77.50
  Q 218.35 76.76 217.69 76.80
  Q 208.32 77.40 200.38 77.27
  C 189.46 77.11 176.69 75.00 164.94 73.51
  C 159.08 72.76 153.28 70.26 146.45 70.44
  C 143.31 70.52 140.44 69.47 136.70 70.05
  Q 134.48 70.39 133.54 68.24"
/>
<path stroke="#55bf60" vector-effect="non-scaling-stroke" d="
  M 123.18 97.85
  Q 118.28 122.44 118.54 148.56"
/>
<path stroke="#a9c962" vector-effect="non-scaling-stroke" d="
  M 118.54 148.56
  C 92.49 156.41 71.36 171.49 53.01 191.41"
/>
<path stroke="#55bf60" vector-effect="non-scaling-stroke" d="
  M 223.71 113.38
  Q 222.32 138.58 215.59 163.59"
/>
<path stroke="#abda68" vector-effect="non-scaling-stroke" d="
  M 215.59 163.59
  C 185.96 145.07 152.65 139.08 118.54 148.56"
/>
<path stroke="#a9c962" vector-effect="non-scaling-stroke" d="
  M 269.37 220.91
  C 254.77 198.03 238.53 178.74 215.59 163.59"
/>
<path stroke="#ffdd5f" vector-effect="non-scaling-stroke" d="
  M 290.29 272.00
  L 289.76 272.56
  A 0.56 0.56 0.0 0 1 288.87 272.47
  C 286.36 268.40 282.44 269.64 278.60 269.34
  A 1.65 1.62 -55.0 0 0 277.74 269.50
  Q 276.45 270.12 275.10 269.82
  Q 274.66 269.72 274.26 269.91
  C 267.27 273.30 257.44 270.59 251.93 270.61
  Q 244.68 270.64 240.07 269.72
  Q 239.53 269.61 239.15 269.21
  Q 237.67 267.64 235.45 268.38
  Q 235.25 268.44 235.14 268.26
  L 234.99 268.01
  A 0.41 0.41 0.0 0 0 234.24 268.13
  Q 234.18 268.38 234.22 268.76"
/>
<path stroke="#fff2b4" vector-effect="non-scaling-stroke" d="
  M 234.22 268.76
  C 222.70 251.03 197.48 252.87 188.24 271.88"
/>
<path stroke="#ffdd5f" vector-effect="non-scaling-stroke" d="
  M 188.24 271.88
  Q 187.89 270.35 187.59 268.92
  Q 187.24 267.27 186.31 266.30
  Q 184.90 264.83 183.08 263.86
  Q 182.60 263.60 182.05 263.52
  Q 180.52 263.30 179.79 264.43
  A 0.64 0.63 36.5 0 1 178.85 264.57
  L 175.94 262.17
  A 1.26 1.24 62.9 0 0 175.10 261.89
  Q 166.10 262.37 158.27 258.29
  C 153.70 255.90 149.27 255.36 144.40 255.18
  Q 140.97 255.06 137.54 254.36
  Q 131.22 253.07 124.73 253.39
  Q 124.20 253.42 123.73 253.18
  Q 117.91 250.21 111.42 251.24
  Q 110.68 251.35 111.09 251.98
  L 111.48 252.57
  Q 111.74 252.96 111.29 253.06
  Q 109.06 253.56 106.80 254.00
  C 104.67 254.42 101.64 253.32 100.53 256.56
  A 0.53 0.53 0.0 0 1 99.82 256.87
  Q 98.76 256.42 98.12 255.55
  Q 97.84 255.18 97.38 255.10
  Q 96.84 255.00 96.48 255.54"
/>
<path stroke="#fff2b4" vector-effect="non-scaling-stroke" d="
  M 96.48 255.54
  Q 84.49 247.55 70.98 253.24"
/>
<path stroke="#ffdd5f" vector-effect="non-scaling-stroke" d="
  M 70.98 253.24
  Q 70.85 252.24 71.49 251.99
  Q 71.80 251.87 71.65 251.57
  Q 71.12 250.56 70.22 250.93
  Q 69.77 251.12 69.42 250.78
  L 67.39 248.83
  A 0.61 0.60 -41.4 0 0 66.60 248.79
  C 63.20 251.36 58.04 251.31 53.37 250.38
  C 49.31 249.57 43.70 251.16 40.75 250.27
  C 37.44 249.27 33.79 249.02 30.80 247.35
  C 28.04 245.81 26.21 243.98 22.80 244.76
  Q 21.63 245.03 22.45 244.16
  L 23.65 242.88
  A 0.56 0.55 -35.0 0 0 23.76 242.27
  L 22.85 240.13"
/>
<path stroke="#ffd857" vector-effect="non-scaling-stroke" d="
  M 158.66 213.24
  A 0.51 0.51 0.0 0 1 158.66 212.49
  Q 171.10 201.40 182.49 189.12
  Q 185.20 186.20 185.69 184.73
  C 187.18 180.34 181.61 176.21 177.64 179.09
  Q 175.48 180.65 174.69 181.44
  Q 163.13 193.00 151.62 204.50
  A 0.95 0.95 0.0 0 1 150.27 204.49
  Q 138.63 192.63 126.49 180.76
  C 124.87 179.17 122.92 177.36 120.46 178.04
  C 116.14 179.23 114.40 184.16 117.76 187.50
  Q 130.17 199.83 142.97 212.56
  Q 143.49 213.08 142.94 213.58
  Q 134.34 221.30 126.41 230.06
  C 125.29 231.30 125.33 232.23 126.03 233.63
  C 129.38 240.33 133.42 238.26 137.66 234.13
  Q 143.94 228.00 150.53 221.31
  A 0.82 0.82 0.0 0 1 151.71 221.31
  C 156.34 226.02 163.84 235.24 169.57 238.09
  Q 170.03 238.32 170.51 238.17
  C 174.08 237.12 178.17 232.91 174.78 229.22
  Q 167.07 220.80 158.66 213.24"
/>
<path stroke="#ffebaa" vector-effect="non-scaling-stroke" d="
  M 70.98 253.24
  C 54.62 260.68 51.64 280.46 62.21 294.48"
/>
<path stroke="#f5c38f" vector-effect="non-scaling-stroke" d="
  M 62.21 294.48
  Q 56.57 295.37 51.49 297.49
  C 45.09 300.14 46.76 306.48 51.56 309.43
  C 60.92 315.18 74.83 317.64 85.28 312.80
  Q 88.49 311.31 89.69 308.01
  Q 89.86 307.53 89.73 307.05
  L 88.42 302.22"
/>
<path stroke="#ffebaa" vector-effect="non-scaling-stroke" d="
  M 88.42 302.22
  C 109.79 295.48 114.80 269.21 96.48 255.54"
/>
<path stroke="#ffebaa" vector-effect="non-scaling-stroke" d="
  M 188.24 271.88
  C 182.59 287.47 189.58 304.02 206.33 307.71"
/>
<path stroke="#f5c38f" vector-effect="non-scaling-stroke" d="
  M 206.33 307.71
  C 203.36 312.35 206.03 315.56 210.39 317.56
  Q 222.27 322.99 235.14 319.98
  C 238.64 319.16 243.27 318.05 245.44 315.99
  C 254.92 306.98 236.31 301.83 230.95 300.37"
/>
<path stroke="#ffebaa" vector-effect="non-scaling-stroke" d="
  M 230.95 300.37
  Q 243.06 285.38 234.22 268.76"
/>
<path stroke="#ffd14c" vector-effect="non-scaling-stroke" d="
  M 276.69 429.45
  Q 276.08 424.82 273.78 421.47
  Q 272.12 419.06 269.53 418.78
  C 267.65 418.58 265.93 418.31 264.12 418.39
  Q 263.62 418.42 263.24 418.09
  C 260.80 416.03 257.52 416.15 254.84 413.59
  Q 254.50 413.27 254.03 413.26
  L 252.14 413.22"
/>
<path stroke="#f6c744" vector-effect="non-scaling-stroke" d="
  M 252.14 413.22
  Q 251.10 409.43 248.30 406.46
  Q 241.45 399.24 234.86 391.97
  Q 234.53 391.60 234.87 391.24
  Q 251.23 374.41 267.29 357.25
  C 269.26 355.15 269.79 353.02 268.00 350.71
  C 264.31 345.94 260.57 348.69 257.25 352.14
  Q 242.66 367.31 227.22 382.96
  A 0.76 0.76 0.0 0 1 226.11 382.94
  Q 214.58 370.08 201.96 357.79
  C 198.65 354.57 191.82 360.95 194.70 364.69
  C 201.39 373.37 209.55 381.23 217.10 389.18"
/>
<path stroke="#ffd14c" vector-effect="non-scaling-stroke" d="
  M 217.10 389.18
  Q 216.83 390.07 216.85 390.09
  A 0.91 0.86 89.3 0 1 215.69 391.35
  Q 211.45 388.73 206.54 389.94
  Q 206.05 390.06 205.59 389.85
  Q 200.51 387.56 194.99 387.34
  C 191.40 387.20 189.09 384.71 185.61 384.09
  Q 182.81 383.60 180.03 382.98
  C 175.39 381.96 170.53 382.86 165.74 382.41
  Q 161.40 382.00 157.76 382.18
  C 150.34 382.53 142.28 381.47 135.75 381.50
  C 130.57 381.52 123.07 382.31 118.17 381.03
  C 115.27 380.27 113.04 380.20 110.27 378.97
  Q 104.39 376.37 98.14 374.62
  Q 97.53 374.45 97.97 373.99
  Q 98.95 372.97 99.21 371.93"
/>
<path stroke="#f6c744" vector-effect="non-scaling-stroke" d="
  M 99.21 371.93
  C 101.40 369.61 104.91 366.61 105.55 363.64
  C 106.25 360.36 103.71 356.56 100.10 357.10
  C 98.18 357.39 96.18 359.36 94.92 360.66
  Q 83.95 371.95 73.37 383.41
  A 0.41 0.41 0.0 0 1 72.77 383.41
  Q 57.07 366.54 40.71 350.24
  C 35.16 344.71 27.50 351.35 33.14 357.60
  Q 37.56 362.50 42.00 367.25"
/>
<path stroke="#ffd14c" vector-effect="non-scaling-stroke" d="
  M 42.00 367.25
  Q 42.41 368.53 43.38 369.57
  Q 43.68 369.91 43.35 370.21
  C 41.97 371.47 39.25 374.70 37.24 374.15
  C 34.73 373.47 32.04 373.68 29.46 373.13
  Q 29.15 373.06 28.88 373.22
  Q 26.14 374.76 23.55 373.08
  Q 23.12 372.81 22.61 372.86
  Q 20.04 373.14 17.65 374.07
  C 15.77 374.80 14.80 376.41 12.90 377.41
  Q 12.53 377.61 12.10 377.61
  Q 10.25 377.61 9.31 376.09
  Q 9.05 375.67 8.57 375.57
  Q 4.37 374.78 3.27 376.88"
/>
<path stroke="#806b2a" vector-effect="non-scaling-stroke" d="
  M 121.37 300.82
  C 115.29 305.89 131.99 314.71 135.21 315.61
  Q 152.17 320.38 165.88 309.86
  Q 168.05 308.20 166.59 305.64
  A 2.45 2.45 0.0 0 0 163.11 304.82
  C 149.78 313.66 135.37 313.78 124.62 301.10
  A 2.32 2.31 49.9 0 0 121.37 300.82"
/>
<path stroke="#f5d7e5" vector-effect="non-scaling-stroke" d="
  M 88.42 302.22
  Q 72.92 304.87 62.21 294.48"
/>
<path stroke="#808080" vector-effect="non-scaling-stroke" d="
  M 98.61 276.89
  A 16.91 16.91 0.0 0 0 81.70 259.98
  A 16.91 16.91 0.0 0 0 64.79 276.89
  A 16.91 16.91 0.0 0 0 81.70 293.80
  A 16.91 16.91 0.0 0 0 98.61 276.89"
/>
<path stroke="#f5d7e5" vector-effect="non-scaling-stroke" d="
  M 230.95 300.37
  Q 220.65 310.21 206.33 307.71"
/>
<path stroke="#808080" vector-effect="non-scaling-stroke" d="
  M 228.90 282.35
  A 16.92 16.92 0.0 0 0 211.98 265.43
  A 16.92 16.92 0.0 0 0 195.06 282.35
  A 16.92 16.92 0.0 0 0 211.98 299.27
  A 16.92 16.92 0.0 0 0 228.90 282.35"
/>
<path stroke="#808080" vector-effect="non-scaling-stroke" d="
  M 82.01 273.63
  A 6.88 6.88 0.0 0 0 75.13 266.75
  A 6.88 6.88 0.0 0 0 68.25 273.63
  A 6.88 6.88 0.0 0 0 75.13 280.51
  A 6.88 6.88 0.0 0 0 82.01 273.63"
/>
<path stroke="#808080" vector-effect="non-scaling-stroke" d="
  M 212.27 279.09
  A 6.88 6.88 0.0 0 0 205.39 272.21
  A 6.88 6.88 0.0 0 0 198.51 279.09
  A 6.88 6.88 0.0 0 0 205.39 285.97
  A 6.88 6.88 0.0 0 0 212.27 279.09"
/>
<path stroke="#f6c23c" vector-effect="non-scaling-stroke" d="
  M 99.21 371.93
  L 81.17 390.84
  Q 80.79 391.23 81.13 391.66
  Q 83.40 394.60 86.03 397.22
  Q 100.30 411.51 113.88 426.46
  C 117.45 430.38 116.01 435.35 110.77 436.15
  C 109.01 436.42 107.76 435.29 106.63 434.13
  Q 90.05 417.19 73.92 400.24
  A 0.94 0.93 44.4 0 0 72.56 400.25
  Q 65.93 407.37 59.05 414.56
  Q 56.90 416.80 55.53 417.39
  C 50.39 419.57 45.79 413.24 49.32 409.27
  Q 56.94 400.71 65.07 392.09
  Q 65.44 391.69 65.07 391.30
  L 42.00 367.25"
/>
<path stroke="#f6c23c" vector-effect="non-scaling-stroke" d="
  M 252.14 413.22
  C 250.56 418.09 245.91 419.35 242.32 415.68
  Q 234.84 408.02 227.30 400.21
  A 0.74 0.73 45.0 0 0 226.25 400.20
  Q 210.01 416.77 193.85 433.60
  Q 192.55 434.96 189.79 436.11
  Q 189.37 436.28 188.95 436.12
  C 185.22 434.62 182.15 430.36 185.40 426.89
  Q 199.96 411.31 219.14 392.06
  Q 219.52 391.68 219.15 391.30
  L 217.10 389.18"
/>
</g>
<path fill="#75df87" d="
  M 220.05 74.02
  Q 219.01 74.52 219.82 76.49
  Q 220.22 77.48 219.16 77.78
  Q 218.77 77.89 218.62 77.50
  Q 218.35 76.76 217.69 76.80
  Q 208.32 77.40 200.38 77.27
  C 189.46 77.11 176.69 75.00 164.94 73.51
  C 159.08 72.76 153.28 70.26 146.45 70.44
  C 143.31 70.52 140.44 69.47 136.70 70.05
  Q 134.48 70.39 133.54 68.24
  C 143.27 45.95 156.60 24.88 174.21 7.96
  Q 179.34 3.03 184.25 0.99
  C 188.79 -0.89 195.49 8.71 197.48 12.00
  Q 214.82 40.65 220.05 74.02
  Z"
/>
<path fill="#52ae5a" d="
  M 123.18 97.85
  Q 118.28 122.44 118.54 148.56
  C 92.49 156.41 71.36 171.49 53.01 191.41
  C 48.66 180.95 44.21 172.00 40.75 160.10
  C 36.48 145.38 34.50 129.86 33.20 114.56
  Q 31.66 96.45 34.77 78.57
  C 37.33 63.82 44.23 60.44 58.72 63.44
  Q 95.77 71.09 123.18 97.85
  Z"
/>
<path fill="#57d066" d="
  M 133.54 68.24
  Q 134.48 70.39 136.70 70.05
  C 140.44 69.47 143.31 70.52 146.45 70.44
  C 153.28 70.26 159.08 72.76 164.94 73.51
  C 176.69 75.00 189.46 77.11 200.38 77.27
  Q 208.32 77.40 217.69 76.80
  Q 218.35 76.76 218.62 77.50
  Q 218.77 77.89 219.16 77.78
  Q 220.22 77.48 219.82 76.49
  Q 219.01 74.52 220.05 74.02
  Q 222.99 93.33 223.71 113.38
  Q 222.32 138.58 215.59 163.59
  C 185.96 145.07 152.65 139.08 118.54 148.56
  Q 118.28 122.44 123.18 97.85
  Q 127.40 82.25 133.54 68.24
  Z"
/>
<path fill="#52ae5a" d="
  M 319.00 106.22
  L 319.00 113.57
  C 313.92 147.20 300.79 179.03 280.85 205.64
  Q 275.22 213.17 269.37 220.91
  C 254.77 198.03 238.53 178.74 215.59 163.59
  Q 222.32 138.58 223.71 113.38
  C 235.87 103.07 255.49 97.75 271.99 94.74
  C 284.47 92.47 315.84 89.01 319.00 106.22
  Z"
/>
<path fill="#ffe469" d="
  M 215.59 163.59
  C 238.53 178.74 254.77 198.03 269.37 220.91
  C 276.64 238.07 284.55 252.98 290.29 272.00
  L 289.76 272.56
  A 0.56 0.56 0.0 0 1 288.87 272.47
  C 286.36 268.40 282.44 269.64 278.60 269.34
  A 1.65 1.62 -55.0 0 0 277.74 269.50
  Q 276.45 270.12 275.10 269.82
  Q 274.66 269.72 274.26 269.91
  C 267.27 273.30 257.44 270.59 251.93 270.61
  Q 244.68 270.64 240.07 269.72
  Q 239.53 269.61 239.15 269.21
  Q 237.67 267.64 235.45 268.38
  Q 235.25 268.44 235.14 268.26
  L 234.99 268.01
  A 0.41 0.41 0.0 0 0 234.24 268.13
  Q 234.18 268.38 234.22 268.76
  C 222.70 251.03 197.48 252.87 188.24 271.88
  Q 187.89 270.35 187.59 268.92
  Q 187.24 267.27 186.31 266.30
  Q 184.90 264.83 183.08 263.86
  Q 182.60 263.60 182.05 263.52
  Q 180.52 263.30 179.79 264.43
  A 0.64 0.63 36.5 0 1 178.85 264.57
  L 175.94 262.17
  A 1.26 1.24 62.9 0 0 175.10 261.89
  Q 166.10 262.37 158.27 258.29
  C 153.70 255.90 149.27 255.36 144.40 255.18
  Q 140.97 255.06 137.54 254.36
  Q 131.22 253.07 124.73 253.39
  Q 124.20 253.42 123.73 253.18
  Q 117.91 250.21 111.42 251.24
  Q 110.68 251.35 111.09 251.98
  L 111.48 252.57
  Q 111.74 252.96 111.29 253.06
  Q 109.06 253.56 106.80 254.00
  C 104.67 254.42 101.64 253.32 100.53 256.56
  A 0.53 0.53 0.0 0 1 99.82 256.87
  Q 98.76 256.42 98.12 255.55
  Q 97.84 255.18 97.38 255.10
  Q 96.84 255.00 96.48 255.54
  Q 84.49 247.55 70.98 253.24
  Q 70.85 252.24 71.49 251.99
  Q 71.80 251.87 71.65 251.57
  Q 71.12 250.56 70.22 250.93
  Q 69.77 251.12 69.42 250.78
  L 67.39 248.83
  A 0.61 0.60 -41.4 0 0 66.60 248.79
  C 63.20 251.36 58.04 251.31 53.37 250.38
  C 49.31 249.57 43.70 251.16 40.75 250.27
  C 37.44 249.27 33.79 249.02 30.80 247.35
  C 28.04 245.81 26.21 243.98 22.80 244.76
  Q 21.63 245.03 22.45 244.16
  L 23.65 242.88
  A 0.56 0.55 -35.0 0 0 23.76 242.27
  L 22.85 240.13
  C 31.11 222.39 41.41 207.18 53.01 191.41
  C 71.36 171.49 92.49 156.41 118.54 148.56
  C 152.65 139.08 185.96 145.07 215.59 163.59
  Z
  M 158.66 213.24
  A 0.51 0.51 0.0 0 1 158.66 212.49
  Q 171.10 201.40 182.49 189.12
  Q 185.20 186.20 185.69 184.73
  C 187.18 180.34 181.61 176.21 177.64 179.09
  Q 175.48 180.65 174.69 181.44
  Q 163.13 193.00 151.62 204.50
  A 0.95 0.95 0.0 0 1 150.27 204.49
  Q 138.63 192.63 126.49 180.76
  C 124.87 179.17 122.92 177.36 120.46 178.04
  C 116.14 179.23 114.40 184.16 117.76 187.50
  Q 130.17 199.83 142.97 212.56
  Q 143.49 213.08 142.94 213.58
  Q 134.34 221.30 126.41 230.06
  C 125.29 231.30 125.33 232.23 126.03 233.63
  C 129.38 240.33 133.42 238.26 137.66 234.13
  Q 143.94 228.00 150.53 221.31
  A 0.82 0.82 0.0 0 1 151.71 221.31
  C 156.34 226.02 163.84 235.24 169.57 238.09
  Q 170.03 238.32 170.51 238.17
  C 174.08 237.12 178.17 232.91 174.78 229.22
  Q 167.07 220.80 158.66 213.24
  Z"
/>
<path fill="#ffcc44" d="
  M 158.66 213.24
  Q 167.07 220.80 174.78 229.22
  C 178.17 232.91 174.08 237.12 170.51 238.17
  Q 170.03 238.32 169.57 238.09
  C 163.84 235.24 156.34 226.02 151.71 221.31
  A 0.82 0.82 0.0 0 0 150.53 221.31
  Q 143.94 228.00 137.66 234.13
  C 133.42 238.26 129.38 240.33 126.03 233.63
  C 125.33 232.23 125.29 231.30 126.41 230.06
  Q 134.34 221.30 142.94 213.58
  Q 143.49 213.08 142.97 212.56
  Q 130.17 199.83 117.76 187.50
  C 114.40 184.16 116.14 179.23 120.46 178.04
  C 122.92 177.36 124.87 179.17 126.49 180.76
  Q 138.63 192.63 150.27 204.49
  A 0.95 0.95 0.0 0 0 151.62 204.50
  Q 163.13 193.00 174.69 181.44
  Q 175.48 180.65 177.64 179.09
  C 181.61 176.21 187.18 180.34 185.69 184.73
  Q 185.20 186.20 182.49 189.12
  Q 171.10 201.40 158.66 212.49
  A 0.51 0.51 0.0 0 0 158.66 213.24
  Z"
/>
<path fill="#ffd654" d="
  M 22.85 240.13
  L 23.76 242.27
  A 0.56 0.55 -35.0 0 1 23.65 242.88
  L 22.45 244.16
  Q 21.63 245.03 22.80 244.76
  C 26.21 243.98 28.04 245.81 30.80 247.35
  C 33.79 249.02 37.44 249.27 40.75 250.27
  C 43.70 251.16 49.31 249.57 53.37 250.38
  C 58.04 251.31 63.20 251.36 66.60 248.79
  A 0.61 0.60 -41.4 0 1 67.39 248.83
  L 69.42 250.78
  Q 69.77 251.12 70.22 250.93
  Q 71.12 250.56 71.65 251.57
  Q 71.80 251.87 71.49 251.99
  Q 70.85 252.24 70.98 253.24
  C 54.62 260.68 51.64 280.46 62.21 294.48
  Q 56.57 295.37 51.49 297.49
  C 45.09 300.14 46.76 306.48 51.56 309.43
  C 60.92 315.18 74.83 317.64 85.28 312.80
  Q 88.49 311.31 89.69 308.01
  Q 89.86 307.53 89.73 307.05
  L 88.42 302.22
  C 109.79 295.48 114.80 269.21 96.48 255.54
  Q 96.84 255.00 97.38 255.10
  Q 97.84 255.18 98.12 255.55
  Q 98.76 256.42 99.82 256.87
  A 0.53 0.53 0.0 0 0 100.53 256.56
  C 101.64 253.32 104.67 254.42 106.80 254.00
  Q 109.06 253.56 111.29 253.06
  Q 111.74 252.96 111.48 252.57
  L 111.09 251.98
  Q 110.68 251.35 111.42 251.24
  Q 117.91 250.21 123.73 253.18
  Q 124.20 253.42 124.73 253.39
  Q 131.22 253.07 137.54 254.36
  Q 140.97 255.06 144.40 255.18
  C 149.27 255.36 153.70 255.90 158.27 258.29
  Q 166.10 262.37 175.10 261.89
  A 1.26 1.24 62.9 0 1 175.94 262.17
  L 178.85 264.57
  A 0.64 0.63 36.5 0 0 179.79 264.43
  Q 180.52 263.30 182.05 263.52
  Q 182.60 263.60 183.08 263.86
  Q 184.90 264.83 186.31 266.30
  Q 187.24 267.27 187.59 268.92
  Q 187.89 270.35 188.24 271.88
  C 182.59 287.47 189.58 304.02 206.33 307.71
  C 203.36 312.35 206.03 315.56 210.39 317.56
  Q 222.27 322.99 235.14 319.98
  C 238.64 319.16 243.27 318.05 245.44 315.99
  C 254.92 306.98 236.31 301.83 230.95 300.37
  Q 243.06 285.38 234.22 268.76
  Q 234.18 268.38 234.24 268.13
  A 0.41 0.41 0.0 0 1 234.99 268.01
  L 235.14 268.26
  Q 235.25 268.44 235.45 268.38
  Q 237.67 267.64 239.15 269.21
  Q 239.53 269.61 240.07 269.72
  Q 244.68 270.64 251.93 270.61
  C 257.44 270.59 267.27 273.30 274.26 269.91
  Q 274.66 269.72 275.10 269.82
  Q 276.45 270.12 277.74 269.50
  A 1.65 1.62 -55.0 0 1 278.60 269.34
  C 282.44 269.64 286.36 268.40 288.87 272.47
  A 0.56 0.56 0.0 0 0 289.76 272.56
  L 290.29 272.00
  Q 302.75 317.16 298.69 365.00
  C 296.66 388.95 290.81 409.77 276.69 429.45
  Q 276.08 424.82 273.78 421.47
  Q 272.12 419.06 269.53 418.78
  C 267.65 418.58 265.93 418.31 264.12 418.39
  Q 263.62 418.42 263.24 418.09
  C 260.80 416.03 257.52 416.15 254.84 413.59
  Q 254.50 413.27 254.03 413.26
  L 252.14 413.22
  Q 251.10 409.43 248.30 406.46
  Q 241.45 399.24 234.86 391.97
  Q 234.53 391.60 234.87 391.24
  Q 251.23 374.41 267.29 357.25
  C 269.26 355.15 269.79 353.02 268.00 350.71
  C 264.31 345.94 260.57 348.69 257.25 352.14
  Q 242.66 367.31 227.22 382.96
  A 0.76 0.76 0.0 0 1 226.11 382.94
  Q 214.58 370.08 201.96 357.79
  C 198.65 354.57 191.82 360.95 194.70 364.69
  C 201.39 373.37 209.55 381.23 217.10 389.18
  Q 216.83 390.07 216.85 390.09
  A 0.91 0.86 89.3 0 1 215.69 391.35
  Q 211.45 388.73 206.54 389.94
  Q 206.05 390.06 205.59 389.85
  Q 200.51 387.56 194.99 387.34
  C 191.40 387.20 189.09 384.71 185.61 384.09
  Q 182.81 383.60 180.03 382.98
  C 175.39 381.96 170.53 382.86 165.74 382.41
  Q 161.40 382.00 157.76 382.18
  C 150.34 382.53 142.28 381.47 135.75 381.50
  C 130.57 381.52 123.07 382.31 118.17 381.03
  C 115.27 380.27 113.04 380.20 110.27 378.97
  Q 104.39 376.37 98.14 374.62
  Q 97.53 374.45 97.97 373.99
  Q 98.95 372.97 99.21 371.93
  C 101.40 369.61 104.91 366.61 105.55 363.64
  C 106.25 360.36 103.71 356.56 100.10 357.10
  C 98.18 357.39 96.18 359.36 94.92 360.66
  Q 83.95 371.95 73.37 383.41
  A 0.41 0.41 0.0 0 1 72.77 383.41
  Q 57.07 366.54 40.71 350.24
  C 35.16 344.71 27.50 351.35 33.14 357.60
  Q 37.56 362.50 42.00 367.25
  Q 42.41 368.53 43.38 369.57
  Q 43.68 369.91 43.35 370.21
  C 41.97 371.47 39.25 374.70 37.24 374.15
  C 34.73 373.47 32.04 373.68 29.46 373.13
  Q 29.15 373.06 28.88 373.22
  Q 26.14 374.76 23.55 373.08
  Q 23.12 372.81 22.61 372.86
  Q 20.04 373.14 17.65 374.07
  C 15.77 374.80 14.80 376.41 12.90 377.41
  Q 12.53 377.61 12.10 377.61
  Q 10.25 377.61 9.31 376.09
  Q 9.05 375.67 8.57 375.57
  Q 4.37 374.78 3.27 376.88
  L 0.00 361.93
  L 0.00 321.19
  Q 1.78 313.66 3.30 306.08
  C 7.98 282.75 13.30 261.50 22.85 240.13
  Z
  M 121.37 300.82
  C 115.29 305.89 131.99 314.71 135.21 315.61
  Q 152.17 320.38 165.88 309.86
  Q 168.05 308.20 166.59 305.64
  A 2.45 2.45 0.0 0 0 163.11 304.82
  C 149.78 313.66 135.37 313.78 124.62 301.10
  A 2.32 2.31 49.9 0 0 121.37 300.82
  Z"
/>
<path fill="#ffffff" d="
  M 96.48 255.54
  C 114.80 269.21 109.79 295.48 88.42 302.22
  Q 72.92 304.87 62.21 294.48
  C 51.64 280.46 54.62 260.68 70.98 253.24
  Q 84.49 247.55 96.48 255.54
  Z
  M 98.61 276.89
  A 16.91 16.91 0.0 0 0 81.70 259.98
  A 16.91 16.91 0.0 0 0 64.79 276.89
  A 16.91 16.91 0.0 0 0 81.70 293.80
  A 16.91 16.91 0.0 0 0 98.61 276.89
  Z"
/>
<path fill="#ffffff" d="
  M 234.22 268.76
  Q 243.06 285.38 230.95 300.37
  Q 220.65 310.21 206.33 307.71
  C 189.58 304.02 182.59 287.47 188.24 271.88
  C 197.48 252.87 222.70 251.03 234.22 268.76
  Z
  M 228.90 282.35
  A 16.92 16.92 0.0 0 0 211.98 265.43
  A 16.92 16.92 0.0 0 0 195.06 282.35
  A 16.92 16.92 0.0 0 0 211.98 299.27
  A 16.92 16.92 0.0 0 0 228.90 282.35
  Z"
/>
<path fill="#000000" d="
  M 98.61 276.89
  A 16.91 16.91 0.0 0 1 81.70 293.80
  A 16.91 16.91 0.0 0 1 64.79 276.89
  A 16.91 16.91 0.0 0 1 81.70 259.98
  A 16.91 16.91 0.0 0 1 98.61 276.89
  Z
  M 82.01 273.63
  A 6.88 6.88 0.0 0 0 75.13 266.75
  A 6.88 6.88 0.0 0 0 68.25 273.63
  A 6.88 6.88 0.0 0 0 75.13 280.51
  A 6.88 6.88 0.0 0 0 82.01 273.63
  Z"
/>
<path fill="#000000" d="
  M 228.90 282.35
  A 16.92 16.92 0.0 0 1 211.98 299.27
  A 16.92 16.92 0.0 0 1 195.06 282.35
  A 16.92 16.92 0.0 0 1 211.98 265.43
  A 16.92 16.92 0.0 0 1 228.90 282.35
  Z
  M 212.27 279.09
  A 6.88 6.88 0.0 0 0 205.39 272.21
  A 6.88 6.88 0.0 0 0 198.51 279.09
  A 6.88 6.88 0.0 0 0 205.39 285.97
  A 6.88 6.88 0.0 0 0 212.27 279.09
  Z"
/>
<circle fill="#ffffff" cx="75.13" cy="273.63" r="6.88"/>
<circle fill="#ffffff" cx="205.39" cy="279.09" r="6.88"/>
<path fill="#ebafca" d="
  M 62.21 294.48
  Q 72.92 304.87 88.42 302.22
  L 89.73 307.05
  Q 89.86 307.53 89.69 308.01
  Q 88.49 311.31 85.28 312.80
  C 74.83 317.64 60.92 315.18 51.56 309.43
  C 46.76 306.48 45.09 300.14 51.49 297.49
  Q 56.57 295.37 62.21 294.48
  Z"
/>
<path fill="#000000" d="
  M 135.21 315.61
  C 131.99 314.71 115.29 305.89 121.37 300.82
  A 2.32 2.31 49.9 0 1 124.62 301.10
  C 135.37 313.78 149.78 313.66 163.11 304.82
  A 2.45 2.45 0.0 0 1 166.59 305.64
  Q 168.05 308.20 165.88 309.86
  Q 152.17 320.38 135.21 315.61
  Z"
/>
<path fill="#ebafca" d="
  M 230.95 300.37
  C 236.31 301.83 254.92 306.98 245.44 315.99
  C 243.27 318.05 238.64 319.16 235.14 319.98
  Q 222.27 322.99 210.39 317.56
  C 206.03 315.56 203.36 312.35 206.33 307.71
  Q 220.65 310.21 230.95 300.37
  Z"
/>
<path fill="#ecb833" d="
  M 99.21 371.93
  L 81.17 390.84
  Q 80.79 391.23 81.13 391.66
  Q 83.40 394.60 86.03 397.22
  Q 100.30 411.51 113.88 426.46
  C 117.45 430.38 116.01 435.35 110.77 436.15
  C 109.01 436.42 107.76 435.29 106.63 434.13
  Q 90.05 417.19 73.92 400.24
  A 0.94 0.93 44.4 0 0 72.56 400.25
  Q 65.93 407.37 59.05 414.56
  Q 56.90 416.80 55.53 417.39
  C 50.39 419.57 45.79 413.24 49.32 409.27
  Q 56.94 400.71 65.07 392.09
  Q 65.44 391.69 65.07 391.30
  L 42.00 367.25
  Q 37.56 362.50 33.14 357.60
  C 27.50 351.35 35.16 344.71 40.71 350.24
  Q 57.07 366.54 72.77 383.41
  A 0.41 0.41 0.0 0 0 73.37 383.41
  Q 83.95 371.95 94.92 360.66
  C 96.18 359.36 98.18 357.39 100.10 357.10
  C 103.71 356.56 106.25 360.36 105.55 363.64
  C 104.91 366.61 101.40 369.61 99.21 371.93
  Z"
/>
<path fill="#ecb833" d="
  M 252.14 413.22
  C 250.56 418.09 245.91 419.35 242.32 415.68
  Q 234.84 408.02 227.30 400.21
  A 0.74 0.73 45.0 0 0 226.25 400.20
  Q 210.01 416.77 193.85 433.60
  Q 192.55 434.96 189.79 436.11
  Q 189.37 436.28 188.95 436.12
  C 185.22 434.62 182.15 430.36 185.40 426.89
  Q 199.96 411.31 219.14 392.06
  Q 219.52 391.68 219.15 391.30
  L 217.10 389.18
  C 209.55 381.23 201.39 373.37 194.70 364.69
  C 191.82 360.95 198.65 354.57 201.96 357.79
  Q 214.58 370.08 226.11 382.94
  A 0.76 0.76 0.0 0 0 227.22 382.96
  Q 242.66 367.31 257.25 352.14
  C 260.57 348.69 264.31 345.94 268.00 350.71
  C 269.79 353.02 269.26 355.15 267.29 357.25
  Q 251.23 374.41 234.87 391.24
  Q 234.53 391.60 234.86 391.97
  Q 241.45 399.24 248.30 406.46
  Q 251.10 409.43 252.14 413.22
  Z"
/>
<path fill="#ffcc44" d="
  M 42.00 367.25
  L 65.07 391.30
  Q 65.44 391.69 65.07 392.09
  Q 56.94 400.71 49.32 409.27
  C 45.79 413.24 50.39 419.57 55.53 417.39
  Q 56.90 416.80 59.05 414.56
  Q 65.93 407.37 72.56 400.25
  A 0.94 0.93 44.4 0 1 73.92 400.24
  Q 90.05 417.19 106.63 434.13
  C 107.76 435.29 109.01 436.42 110.77 436.15
  C 116.01 435.35 117.45 430.38 113.88 426.46
  Q 100.30 411.51 86.03 397.22
  Q 83.40 394.60 81.13 391.66
  Q 80.79 391.23 81.17 390.84
  L 99.21 371.93
  Q 98.95 372.97 97.97 373.99
  Q 97.53 374.45 98.14 374.62
  Q 104.39 376.37 110.27 378.97
  C 113.04 380.20 115.27 380.27 118.17 381.03
  C 123.07 382.31 130.57 381.52 135.75 381.50
  C 142.28 381.47 150.34 382.53 157.76 382.18
  Q 161.40 382.00 165.74 382.41
  C 170.53 382.86 175.39 381.96 180.03 382.98
  Q 182.81 383.60 185.61 384.09
  C 189.09 384.71 191.40 387.20 194.99 387.34
  Q 200.51 387.56 205.59 389.85
  Q 206.05 390.06 206.54 389.94
  Q 211.45 388.73 215.69 391.35
  A 0.91 0.86 89.3 0 0 216.85 390.09
  Q 216.83 390.07 217.10 389.18
  L 219.15 391.30
  Q 219.52 391.68 219.14 392.06
  Q 199.96 411.31 185.40 426.89
  C 182.15 430.36 185.22 434.62 188.95 436.12
  Q 189.37 436.28 189.79 436.11
  Q 192.55 434.96 193.85 433.60
  Q 210.01 416.77 226.25 400.20
  A 0.74 0.73 45.0 0 1 227.30 400.21
  Q 234.84 408.02 242.32 415.68
  C 245.91 419.35 250.56 418.09 252.14 413.22
  L 254.03 413.26
  Q 254.50 413.27 254.84 413.59
  C 257.52 416.15 260.80 416.03 263.24 418.09
  Q 263.62 418.42 264.12 418.39
  C 265.93 418.31 267.65 418.58 269.53 418.78
  Q 272.12 419.06 273.78 421.47
  Q 276.08 424.82 276.69 429.45
  C 256.28 457.69 222.02 468.48 189.15 474.23
  C 185.23 474.91 180.96 476.39 176.68 477.00
  L 122.94 477.00
  C 118.93 475.76 115.13 474.48 110.95 473.66
  C 79.83 467.56 51.57 460.14 30.04 435.92
  C 14.22 418.11 8.12 399.78 3.27 376.88
  Q 4.37 374.78 8.57 375.57
  Q 9.05 375.67 9.31 376.09
  Q 10.25 377.61 12.10 377.61
  Q 12.53 377.61 12.90 377.41
  C 14.80 376.41 15.77 374.80 17.65 374.07
  Q 20.04 373.14 22.61 372.86
  Q 23.12 372.81 23.55 373.08
  Q 26.14 374.76 28.88 373.22
  Q 29.15 373.06 29.46 373.13
  C 32.04 373.68 34.73 373.47 37.24 374.15
  C 39.25 374.70 41.97 371.47 43.35 370.21
  Q 43.68 369.91 43.38 369.57
  Q 42.41 368.53 42.00 367.25
  Z"
/>
</svg>
